<svg width="1001" height="854" viewBox="0 0 1001 854" fill="none" xmlns="http://www.w3.org/2000/svg">
<path d="M498.509 83.3984L500.66 84.1401L501.377 116.772L502.811 120.481L509.98 125.672L509.263 128.639L503.528 133.83L502.811 137.538L506.395 139.763L511.414 141.988V144.213L503.528 150.888L502.094 153.855L511.414 159.046L512.131 160.529L508.546 164.238L501.377 170.171V173.137L512.131 176.846L510.697 179.812L502.094 188.712L502.811 190.937L509.263 193.903L512.131 196.128L510.697 199.095L502.811 205.028H501.377V207.253L508.546 210.22L511.414 212.444L510.697 215.411L502.094 222.827L501.377 225.794L504.961 227.277L510.697 230.986V233.21L504.244 237.66L502.094 238.402L502.811 241.369L511.414 248.785V252.493L509.263 255.46L509.98 259.168L514.998 264.36L520.017 272.518L527.903 278.451L528.62 282.901L527.186 286.609L532.204 292.542L537.223 297.734L551.561 308.858L564.466 317.758L575.22 324.433L586.69 330.366L598.878 337.782L613.933 345.199L633.29 353.357L658.382 362.257L684.908 368.931L702.114 371.898L708.567 372.64H730.791L745.129 369.673L753.733 365.965L760.902 361.515H762.336L760.902 365.223L746.563 380.056L741.545 385.989L734.376 393.406L727.923 402.305L727.207 404.53L720.754 413.43L717.887 419.363L713.585 421.588L677.022 429.746L644.044 437.904L621.819 442.354L608.198 443.837L611.782 447.546L624.687 454.962L636.158 461.637L656.948 472.761L672.004 477.953L698.53 485.369L723.622 491.303L744.413 495.011L755.883 496.494H782.409L793.88 494.269L798.899 493.527L798.182 496.494L793.163 502.427L785.277 509.102L783.843 514.293L779.542 516.518L764.486 519.485L744.413 522.452L717.17 526.16L680.607 531.351L659.816 535.06L656.231 536.543L654.081 538.768L640.459 540.993L626.838 542.476L614.151 541.51L637.592 558.05L654.081 567.692L662.684 572.142L680.607 578.817L692.077 583.266L703.725 586.684H705.405L703.725 591.318L715.736 593.649L740.828 600.324L761.619 604.774L783.843 607.741H799.615L811.086 604.774H813.237L812.52 608.482L789.941 631.859L788.262 635.333L740.828 636.665L694.228 639.631L664.834 642.598L649.062 644.823L636.158 645.564L636.321 645.555L649.062 656.689L664.118 664.847L670.57 667.814L680.607 671.82L695.888 677.612L711.003 682.824L728.918 690.353L741.545 694.513L758.751 700.446L778.825 708.604L798.899 715.279L816.822 719.729L832.594 722.695L854.818 725.662L878.477 727.887L907.153 729.37L917.19 740.495L922.209 746.428L931.529 756.069L942.282 766.452L951.602 776.094L953.036 777.577L973.827 799.085L980.279 804.276L990.316 813.176L998.202 820.592V821.334L694.228 809.027L672.004 806.184L540.807 820.663L424.666 813.176L310.156 819.505L305.658 813.176L1.68359 822.076L3.92397 819.456L8.85279 813.918L12.4374 810.209L13.4456 809.027L16.2395 806.184L20.1584 803.289L28.2096 796.118L51.868 771.644L57.6678 765.643L65.4895 757.553L71.104 751.165L78.394 744.203L84.8463 736.045L89.0189 730.315L92.7324 728.629L122.843 726.404L152.237 722.695L173.027 718.987L198.12 713.519L220.582 707.728L239.616 700.199L251.172 695.566L273.767 686.299L293.47 678.191L307.917 672.399L322.864 665.589L335.768 658.172L346.522 650.756L352.257 644.823H339.353L315.695 642.598L281.282 638.89L251.172 637.406L223.212 636.665H207.44L198.12 629.248L185.932 620.349L178.763 613.674L173.744 607.741L173.027 604.774L176.612 605.516L183.064 606.999L191.667 607.741H202.421L222.495 605.516L244.719 601.066L276.264 592.908L281.999 592.166L277.126 586.233H278.415L286.301 584.75L293.47 583.266L327.165 572.142L346.522 563.242L368.03 551.376L377.35 545.443L380.934 541.734L377.35 542.476H364.445L340.787 538.768L335.051 536.543L332.901 534.318L322.147 532.093L287.018 526.901L279.849 525.418L251.889 523.193L242.569 521.71L211.024 520.968L202.421 518.743L195.252 515.777L193.818 511.327L187.366 506.135L180.197 498.719L178.763 496.494V494.269L182.347 495.011L185.932 496.494L193.818 497.977L201.704 498.719H226.08L239.701 497.236L266.227 492.044L291.319 486.111L321.43 477.211L338.636 471.278L350.107 465.345L365.879 455.704L375.199 449.77L380.934 446.062L381.651 444.579L368.03 443.096L351.541 439.387L330.033 433.454L287.018 424.369L270.529 421.402L269.408 419.085L267.168 415.608L266.227 414.172L262.687 408.076L261.567 406.338L259.887 404.599L256.19 400.08L248.304 390.439L237.55 380.056L231.098 371.898L225.363 364.481L226.08 362.998L229.664 364.481L237.55 369.673L251.172 373.381L259.058 374.123H277.698L293.47 371.898L319.996 365.965L342.221 359.29L363.728 351.132L384.519 342.232L401.008 334.074L416.063 325.174L424.666 320.724L439.005 311.083L448.325 304.408L456.928 297.734L466.965 288.834L469.115 286.609V278.451L472.7 274.743L479.152 267.326L487.755 256.201V254.718L483.454 251.01L484.888 247.302L489.906 243.593H491.34L492.057 238.402L484.888 233.21L485.605 230.244L494.208 225.794V222.827L487.755 217.636L484.171 214.669L485.605 211.703L494.208 207.995L493.491 205.028L484.888 198.353V196.128L487.755 193.903L493.491 190.937L494.924 188.712L485.605 181.295L484.171 179.07L487.755 176.104L494.208 173.879L493.491 169.429L486.321 164.238L484.171 162.754L485.605 159.788L493.491 154.596V151.63L485.605 145.697L484.888 142.73L493.491 139.022L494.208 136.055L490.623 132.347L485.605 127.897L487.038 124.93L494.208 120.481L495.641 116.772L497.075 85.6234L498.509 83.3984ZM527.903 814.659L525.752 816.884L540.807 816.143L544.392 815.401V814.659H527.903Z" fill="#0D1117"/>
<path d="M379.202 677.608H452.295V679.832L453.012 780.652V811.046H471.643V691.694V678.188V677.029L530.404 677.608V679.091L531.121 773.98V811.046H549.752V795.177V752.899V710.226V677.608H604.93H618.069L622.129 685.763L630.946 701.354L642.91 722.829L651.1 738.999L658.378 752.319L663.691 762.86L672.374 779.54L679.457 791.772L680.212 793.254H967.971L975.747 800.389L983.025 806.76L987.504 810.814L991.423 814.868L997.581 820.66L998.141 821.818L702.388 819.942L658.378 820.683H540.811H308.976H306.797L1.68359 821.818L3.92296 819.212L6.16233 816.606L11.2009 811.393L12.8804 809.656L14.56 807.918L15.6796 806.76L16.7993 805.602L22.3977 800.389L30.2355 793.996H32.1142H33.0855H317.434L319.725 789.548L329.04 771.015L336.206 757.671L342.656 745.81L351.255 728.759L356.623 716.991L366.303 697.624L370.06 690.929L377.337 677.608H379.202Z" fill="#50C878"/>
<path d="M498.282 83.7695L500.431 84.5109L501.148 117.129L502.581 120.835L509.747 126.025L509.03 128.99L503.298 134.179L502.581 137.886L506.164 140.11L511.18 142.334V144.558L503.298 151.23L501.865 154.195L511.18 159.384L511.897 160.867L508.314 164.573L501.148 170.504V173.469L511.897 177.176L510.464 180.141L501.865 189.037L502.581 191.261L509.03 194.226L511.897 196.45L510.464 199.415L502.581 205.346H501.148V207.57L508.314 210.535L511.18 212.759L510.464 215.724L501.865 223.137L501.148 226.103L504.731 227.585L510.464 231.292V233.516L504.014 237.964L501.865 238.705L502.581 241.67L511.18 249.084V252.79L509.03 255.755L509.747 259.462L514.763 264.651L519.779 272.806L527.662 278.736L528.379 283.184L526.945 286.891L531.962 292.821L536.978 298.011L551.31 309.13L564.209 318.026L574.957 324.698L586.423 330.629L598.605 338.042L613.654 345.455L633.002 353.61L658.083 362.505L684.597 369.177L701.795 372.143L708.245 372.884H730.459L744.791 369.919L753.39 366.212L760.556 361.764H761.989L760.556 365.471L746.224 380.297L741.208 386.228L734.042 393.641L727.593 402.537L724.726 405.502H716.127L684.597 401.795L652.35 396.606L648.767 395.123L650.2 393.641L661.666 389.934L671.698 384.745L672.415 383.262L667.399 382.521H660.949L653.783 383.262L576.391 384.004H357.828L319.132 381.78L311.966 381.038L312.683 383.262L321.998 387.71L338.48 392.158L345.646 393.641L344.93 395.123L318.416 400.313L266.82 407.726H262.521L260.327 404.251L256.072 400.313L248.189 390.676L237.44 380.297L230.991 372.143L225.258 364.729L225.974 363.247L229.557 364.729L237.44 369.919L251.055 373.625L258.938 374.366H277.569L293.335 372.143L319.849 366.212L342.063 359.54L363.561 351.386L384.342 342.49L400.824 334.335L415.873 325.439L424.472 320.992L438.804 311.354L448.12 304.683L456.719 298.011L466.751 289.115L468.901 286.891V278.736L472.484 275.03L478.933 267.617L487.533 256.497V255.014L483.233 251.308L484.666 247.601L489.682 243.894H491.116L491.832 238.705L484.666 233.516L485.383 230.551L493.982 226.103V223.137L487.533 217.948L483.95 214.983L485.383 212.018L493.982 208.311L493.265 205.346L484.666 198.674V196.45L487.533 194.226L493.265 191.261L494.699 189.037L485.383 181.624L483.95 179.4L487.533 176.434L493.982 174.21L493.265 169.763L486.099 164.573L483.95 163.091L485.383 160.125L493.265 154.936V151.971L485.383 146.04L484.666 143.075L493.265 139.368L493.982 136.403L490.399 132.697L485.383 128.249L486.816 125.283L493.982 120.835L495.415 117.129L496.848 85.9935L498.282 83.7695Z" fill="#0E1217"/>
<path d="M281.876 591.57L285.459 593.053L296.208 596.759L301.224 597.501H682.454L691.053 596.018L695.353 594.535L703.952 591.314L695.353 598.983L683.171 605.655L678.871 607.879L703.952 616.034L721.15 620.482L747.664 625.671L779.195 630.119L787.794 630.86L789.943 631.855L788.263 635.33L740.498 636.791L693.92 639.756L664.539 642.721L648.774 644.945L635.875 645.686H633.187H631.576H353.536L353.266 645.176L352.103 644.945H339.204L315.556 642.721L281.159 639.014L251.062 637.532L223.115 636.791H207.35L198.034 629.377L185.852 620.482L178.686 613.81L173.67 607.879L172.953 604.914L176.536 605.655L182.985 607.138L191.585 607.879H202.334L222.398 605.655L244.613 601.207L276.143 593.053L281.046 591.894L281.876 591.57Z" fill="#50C878"/>
<path d="M310.15 381.088L331.311 381.621H357.737H466.906H521.771H576.075H614.704H653.333H660.946H667.396H676.287L672.412 384.586L666.679 388.293L655.93 392.741L650.197 394.223L652.347 395.706L684.594 400.895L716.124 404.602L724.993 405.25H726.113L726.873 404.602L722.754 410.625L721.634 412.362L721.074 413.521L717.557 419.428L714.916 422.787L677.966 434.37L644.376 440.162L621.533 442.409L607.918 443.892H606.867L449.55 445.374L383.607 444.633H382.93H381.473L367.858 443.151L351.376 439.444L329.745 434.37L307.911 429.737L286.637 425.104L270.4 421.652L269.282 419.312L267.042 415.837L266.101 414.239L265.869 413.823L266.099 414.239L262.004 407.729H270.4L318.413 399.413L344.927 394.223L327.012 389.776L316.979 386.069L312.39 382.825L310.15 381.088Z" fill="#50C878"/>
<path d="M318.412 481.861L371.44 482.603L667.888 481.861L643.255 486.309L634.431 485.568H610.783H331.31L328.444 486.309L338.476 490.757L349.942 493.722L354.241 494.464L367.14 495.205H602.184L634.431 494.464L646.613 492.24L657.251 486.309H643.255L667.888 481.861L657.251 491.128L649.48 500.394L653.779 501.877L700.358 510.773L735.471 515.962L759.143 520.41H757.686L729.022 524.858L690.326 530.047L667.888 534.564L657.251 536.881L649.48 539.198L640.164 541.167L626.548 542.649L612.464 542.093H604.626H495.457H386.848L381.809 541.908H380.755L377.173 542.649H364.274L340.626 538.943L334.893 536.719L329.744 534.564L321.994 532.271L286.881 527.082L279.715 525.599L251.768 523.375L242.452 521.893L210.922 521.151V520.41L243.885 519.669L265.383 515.221L300.497 509.29L324.861 504.101L337.043 501.877H339.909L337.043 498.912L327.011 491.498L319.667 484.178L318.412 481.861Z" fill="#50C878"/>
<path d="M31.3288 798.08L78.6242 798.821L315.818 799.563L313.511 804.451L308.473 816.034L305.674 820.667L13.4362 821.825H0L8.39763 813.717L12.3165 810.242L15.6756 806.767L17.3551 805.03L21.274 801.555L25.1929 798.08H31.3288Z" fill="#0D1016"/>
<path d="M969.201 798.08L921.905 798.814L683.007 799.818L685.428 803.949L692.524 816.034L694.744 820.088L987.001 821.825H1000.44L988.121 811.401L984.202 807.926L978.604 802.713L973.005 798.08H969.201Z" fill="#0D1016"/>
<path d="M429.49 398.826L602.906 399.567L617.955 401.05L651.635 406.239L688.898 412.17L707.084 414.671L711.562 414.092L706.097 421.066L683.882 428.479L660.951 432.186L653.899 433.204H647.74L638.736 429.22L627.271 423.29L615.089 416.618L607.923 411.429L605.773 409.946L440.955 409.205L385.061 409.946L380.761 412.911L371.445 418.842L352.814 427.738L344.306 433.204L337.049 432.186L314.834 428.479L306.237 426.834L299.069 424.772L279.004 419.583L277.125 416.618H281.154L319.85 409.205L354.964 402.533L374.312 400.309L385.777 399.567L429.49 398.826Z" fill="#0E1217"/>
<path d="M426.621 499.648H603.62L617.952 500.39L634.434 504.096L655.216 509.286L682.446 513.733L699.645 516.699L721.859 521.147V524.112L714.693 525.595L701.078 527.077H673.847L655.932 523.371L639.45 517.44L625.118 511.51L614.369 507.803L610.786 507.062H403.69L379.325 507.803L357.111 517.44L340.629 525.595L329.164 528.56H314.832L289.751 525.595L278.285 523.371L279.002 521.147L300.5 515.957L333.463 510.027L359.977 503.355L373.593 501.131L381.475 500.39L426.621 499.648Z" fill="#0E1217"/>
<path d="M369.291 602.326L620.817 601.955L640.882 603.438L657.363 606.403L662.823 607.815C662.942 607.846 662.981 607.996 662.892 608.081V608.081C662.867 608.105 662.835 608.12 662.8 608.123L657.363 608.697L633.182 611.592L606.869 611.013L555.924 611.592H454.566H369.291L344.863 611.013V611.013C336.803 611.013 328.703 610.23 320.79 608.697V608.697V608.697C320.717 608.674 320.714 608.572 320.786 608.545L332.26 604.356C332.582 604.238 332.917 604.161 333.258 604.125L344.863 602.905L369.291 602.326Z" fill="#0E1217"/>
<path d="M322.477 383.404L344.223 384.748L353.539 385.489L531.972 386.231H580.7L636.595 385.489H662.86L658.093 387.713L650.927 389.937L632.295 392.903L607.214 394.385L552.753 395.127H373.603L356.405 392.903L337.057 389.196L329.174 386.972L326.308 385.489L322.477 383.404Z" fill="#0E1217"/>
<path d="M273.277 593.794L281.606 591.314L288.884 600.002L296.925 606.396L300.641 609.268L285.459 616.034L269.694 620.481L248.912 624.929L221.682 629.377L203.767 630.86L198.751 630.119L185.852 620.481L178.686 613.81L173.67 607.879L172.953 604.914L176.536 605.655L182.985 607.138L191.585 607.879H202.334L222.398 605.655L244.613 601.207L273.277 593.794Z" fill="#101318"/>
<path d="M645.901 585.639H660.233L678.148 586.38L675.282 587.863L653.067 588.604H328.449L314.117 587.863L312.684 586.38L645.901 585.639Z" fill="#50C878"/>
<path d="M348.695 662.555H638.466L639.9 666.416L457 668.346L346.543 666.416L348.695 662.555Z" fill="#50C878"/>
<path d="M409.421 590.09L411.571 590.831L405.122 592.314V593.796L396.523 595.279V596.762H402.255V597.503H359.259L351.377 596.762L353.527 595.279L349.227 593.055L344.211 592.314V590.831L358.543 591.572L369.292 592.314H381.474L398.672 591.572L409.421 590.09Z" fill="#0D1117"/>
<path d="M362.126 386.969L402.255 387.71V389.193L403.689 389.934L399.389 391.417V392.899H362.843L358.543 391.417L359.976 387.71L362.126 386.969Z" fill="#0D1117"/>
<path d="M471.062 0H502.593L523.374 0.741319L539.139 2.22396L574.252 7.41319L585.718 9.63714L610.799 16.309L629.43 20.7569L648.062 27.4288L668.127 35.5833L690.341 45.2204L701.807 51.151L719.722 61.5295L734.054 70.4253L747.669 79.3211L759.135 86.7343L782.066 104.526L789.948 111.198L795.681 115.646L804.997 124.542L810.73 129.731L814.58 133.206L816.259 134.943L817.896 136.403L819.329 137.839L820.762 139.368L832.228 151.229L837.244 157.16L842.26 162.349L848.709 170.503L856.592 180.14L863.758 189.778L872.357 200.897L880.956 213.5L888.122 224.62L894.572 235.739L898.155 238.705L903.171 246.118L909.62 257.238L918.219 273.547L927.535 296.528L933.984 314.319L942.584 341.007L946.883 359.54L951.899 389.192L956.199 422.552L956.915 429.965H982.713L984.863 430.706V442.567L976.98 443.309H956.199L956.915 444.791V467.772L956.199 488.529L953.332 512.993L947.6 550.059L942.584 572.298L933.984 598.986L928.252 614.553L921.086 631.604L913.92 645.689L904.604 662.739L895.288 679.048L889.555 688.685L884.539 696.84L874.507 710.183L868.774 717.597L863.041 724.268V722.045L869.491 712.407L876.657 702.77L883.823 692.392L890.988 679.789L901.738 660.515L906.754 651.619L911.77 641.241L918.219 628.638L925.385 610.105L930.401 595.279L939.001 568.592L944.733 544.869L948.316 522.63L951.183 495.942L952.616 475.185L953.332 444.05L906.037 443.309L904.604 441.826V430.706L903.171 421.81L900.304 395.123L896.005 369.918L888.839 340.265L883.106 320.991L873.074 294.304L869.491 283.925L870.924 279.477L873.074 280.96L881.673 303.941L888.839 322.474L893.138 338.783L899.588 363.988L903.887 386.227L907.47 407.725L908.187 416.621V429.965L921.086 430.706L918.219 407.725L913.92 379.555L907.47 351.385L901.021 328.404L894.572 310.613L887.406 289.114L881.673 277.253V274.288L890.272 270.581L896.721 266.875L899.588 267.616L910.337 294.304L920.369 321.732L925.385 338.041L931.835 364.729L937.567 392.158L941.15 415.139L942.584 429.965H952.616L949.75 402.536L947.6 384.744L942.584 356.574L936.851 333.593L924.669 299.493L916.069 278.736L910.337 266.875L900.304 249.824L896.721 244.635L891.705 245.377L882.389 251.307L878.09 252.79L874.507 245.377L870.207 237.222L864.474 226.844L854.442 212.017L847.276 202.38L838.677 192.002L830.794 182.364L822.912 171.986L814.313 162.349L812.163 160.866L811.221 159.847L809.296 157.901L800.697 149.746L788.515 140.109L779.916 133.437L777.05 134.92L773.467 140.851L774.183 143.816L783.499 151.97L790.665 158.642L797.831 164.573L807.147 173.469L812.163 179.399L821.479 189.036L828.645 198.673L836.527 209.793L845.126 220.913L853.725 234.257L860.175 246.118V248.342L842.26 257.238H840.827L845.126 265.392L855.159 283.184L864.474 303.941L873.074 326.18L878.806 343.231L887.406 378.814L890.272 399.571L890.988 421.069V448.498L889.555 454.428H887.406L886.689 418.104L885.256 397.347L882.389 379.555L876.657 354.35L871.64 337.3L867.341 324.698L859.458 305.423L856.592 300.234L847.276 303.941L842.976 306.165L843.693 309.871L849.426 321.732L855.159 335.076L861.608 354.35L866.624 373.625L870.207 393.64L873.074 418.104V462.583L872.357 464.807V469.996L873.074 471.479L890.988 472.22L892.422 472.961V476.668L890.988 477.409L886.689 476.668L868.774 475.927L868.057 472.22L868.774 470.737L868.057 464.066L868.774 448.498V426.258L866.624 403.277L862.325 377.331L857.308 356.574L850.142 335.076L840.11 313.578L837.96 309.871L832.228 310.613L826.495 314.319L828.645 322.474L835.811 343.231L842.976 367.694L849.426 396.606L852.292 418.104L853.009 425.517V465.548L850.859 487.046L847.993 507.062L845.126 518.182V525.595L847.276 526.336H860.891L902.454 527.078L903.887 528.56L902.454 538.939L899.588 551.541L894.572 568.592L886.689 590.09L884.539 596.762V600.468L891.705 603.433L896.005 604.916V605.657H888.122L880.956 604.175L878.09 602.692L880.24 596.02L883.823 587.866L892.422 561.92L898.155 541.904L899.588 532.267L895.288 531.526H859.458L853.009 530.043L842.26 529.302L840.11 528.56L839.394 527.078V521.147L843.693 502.614L846.559 481.857L848.709 459.618V424.776L845.843 399.571L842.26 382.52L837.244 361.764L827.928 332.111L823.628 320.25L817.896 308.389L810.73 294.304L800.697 277.995L793.531 267.616L786.365 257.979L777.05 246.118L762.718 226.844L746.236 209.793L736.92 202.38L729.754 196.449L718.288 186.812L710.406 180.882L698.224 171.245L687.475 163.831L676.726 157.16L661.677 148.264L650.928 143.075L629.43 134.179L603.633 125.283L583.568 119.352L559.204 114.163L544.872 111.939L532.69 110.457L529.107 108.233L528.39 106.009V86.7343L529.107 85.2517H537.706L549.888 85.993L557.054 86.7343L562.07 88.2169L583.568 91.9235L585.718 91.1822L589.301 92.6649L591.451 94.1475L601.483 97.1128L608.649 98.5954L625.847 104.526L631.58 106.75L650.928 114.904L661.677 120.835L678.159 128.989L689.625 135.661L701.807 142.333L705.39 143.816L707.54 149.005L706.823 151.229L702.523 149.746L693.208 143.816L675.293 133.437L663.111 126.766L643.046 117.128L623.698 109.715L600.05 102.302L577.835 97.1128L537.706 90.4409L532.69 89.6996L531.973 93.4062V100.078L534.123 104.526L539.139 106.009L557.771 108.974L589.301 115.646L600.05 119.352L625.131 127.507L649.495 137.885L665.977 145.298L678.876 152.712L691.058 160.125L703.24 169.021L714.705 178.658L721.871 184.588L724.021 185.33L728.321 180.14L734.77 168.279L739.786 160.866L749.819 142.333L765.584 117.87L771.317 105.267L770.6 101.561L764.151 95.6301L752.685 86.7343L733.337 74.8732L715.422 63.7534L698.94 54.1163L682.459 45.9618L663.111 37.8073L637.313 27.4288L617.965 21.4982L598.617 17.0503L569.953 11.1198L544.872 7.41319L531.257 5.93055L519.791 5.18923H468.913L446.698 6.67187L428.783 8.89583L401.552 14.0851L372.172 20.7569L353.54 26.6875L329.893 36.3246L313.411 43.7378L296.213 52.6336L266.115 71.9079L256.083 78.5798L248.917 81.5451L246.051 83.769L246.767 86.7343L254.65 94.1475L260.383 89.6996L267.549 83.0277L274.715 80.0624L289.763 71.9079L296.929 67.46L313.411 59.3055L332.042 50.4097L351.391 42.2552L375.038 34.1007L403.702 26.6875L429.5 21.4982L451.714 18.533L470.346 17.7917H506.892L529.107 18.533L555.621 21.4982L577.835 25.2048L590.734 28.1701L610.799 33.3593L653.795 48.1857L674.576 57.0815L686.042 62.2708L699.657 69.684L719.005 80.8038L729.754 87.4756L741.22 96.3714L748.386 102.302L751.252 106.009L748.386 109.715H746.236L739.786 101.561L731.904 94.8888L718.288 85.993L701.807 76.3558L688.191 68.9427L670.993 60.7881L650.928 52.6336L636.596 47.4444L620.831 42.2552L600.767 36.3246L574.969 30.3941L547.738 26.6875L521.224 23.7222L496.86 22.9809L466.046 23.7222L441.682 25.9462L412.301 30.3941L381.488 37.8073L360.706 44.4791L344.941 50.4097L323.443 60.0468L306.245 68.2013L292.63 75.6145L281.164 82.2864L263.966 91.9235L257.516 95.6301H256.083L259.666 99.3367L266.115 104.526L274.715 112.68L284.03 124.542L288.33 130.472L291.913 134.179L290.48 137.144L280.447 142.333L281.164 145.298L289.047 158.642L293.346 162.349L296.929 161.608L308.395 153.453L319.144 146.04L330.609 140.109L360.706 126.024L390.087 115.646L418.751 107.491L439.532 103.785L470.346 100.078V87.4756L468.913 55.5989L470.346 53.375L476.795 51.151L482.528 50.4097H513.342L527.674 51.8923L530.54 52.6336L553.471 54.8576L572.103 57.8229L586.435 60.7881L607.932 65.9774L617.965 68.9427L628.714 71.9079L634.447 74.1319L653.795 80.8038L660.244 83.769L675.293 91.1822L686.758 97.1128L698.94 104.526L708.973 111.198L716.855 117.128L726.888 123.8L730.471 128.248V129.731L725.454 128.989L717.572 123.8L701.807 112.68L691.058 106.009L678.159 98.5954L660.244 89.6996L642.329 82.2864L612.232 73.3906L579.985 65.2361L551.321 60.7881L525.524 58.5642L499.726 57.8229H474.645V66.7187H497.576L522.657 67.46L544.872 69.684L577.835 75.6145L602.2 80.8038L622.981 86.7343L645.196 94.8888L667.41 105.267L678.876 111.198L693.924 119.352L704.673 126.766L713.989 134.179L715.422 136.403V140.109H713.272L701.807 131.213L686.758 121.576L666.694 110.457L645.912 100.819L633.013 95.6301L615.098 89.6996L596.467 84.5103L579.269 80.8038L554.904 77.0972L528.39 74.1319L509.759 72.6492L475.362 71.9079V99.3367L473.929 103.785L465.33 105.267L435.949 109.715L413.018 114.163L389.37 120.835L370.022 127.507L352.824 134.92L336.342 143.075L327.743 146.781L314.844 154.194L304.095 161.608L296.213 168.279L294.063 170.503H292.63V171.986L284.747 178.658L273.281 188.295L266.115 194.226L258.949 200.897L249.634 208.311L241.035 216.465L233.152 225.361L224.553 237.222L216.67 246.859L210.937 255.014L202.338 266.875L196.605 275.029L190.156 286.149L180.124 305.423L173.674 319.508L170.091 326.922H168.658L169.375 320.25L177.257 300.975L183.707 288.373L191.589 274.288L200.905 260.944L206.638 254.272L220.97 234.998L236.735 215.724L246.051 206.087L255.366 198.673L263.249 191.26L266.832 187.554L264.682 178.658L259.666 171.986L256.083 172.727L249.634 179.399L243.901 184.588L230.286 198.673L229.569 200.156H228.136L226.703 203.121H225.269L223.836 206.087L215.237 214.982L207.354 225.361L200.905 234.257L195.889 241.67L186.573 256.496L183.707 257.979L182.99 255.014L188.006 244.635L195.172 234.257L203.771 221.654L213.087 210.535L225.986 197.191L231.002 191.26L234.585 186.812H236.018L236.735 184.588L242.468 179.399L254.65 167.538L255.366 163.831L251.067 158.642L247.484 157.901L243.184 160.125L236.018 166.797L220.97 182.364L215.954 188.295H214.52L213.087 191.26H211.654L210.221 194.226H208.788L207.354 197.191L198.039 206.828L191.589 214.982L185.14 222.396L178.691 230.55L173.674 238.705L165.075 253.531L162.209 258.72V260.944L167.225 263.168V266.133L162.925 269.099L157.193 280.96L152.893 289.114L150.027 289.856L148.593 294.304L144.294 302.458L142.144 303.199L130.678 298.01L119.213 294.304L112.047 289.856L110.614 288.373L111.33 284.666L113.48 283.925L124.946 289.856L138.561 296.528H142.144L145.01 290.597L145.727 285.408L151.46 275.029L156.476 263.909L164.359 246.118L171.525 232.774L176.541 224.62L175.108 221.654L167.942 214.982L164.359 215.724L157.909 225.361L150.027 238.705L137.128 265.392L130.678 274.288L128.529 275.029L127.812 271.323L139.278 247.6L148.593 230.55L156.476 218.689L161.492 211.276L166.508 205.345L169.642 202.125L175.241 195.175L177.974 192.002L185.857 183.106L190.873 177.175L198.755 168.279L207.354 160.125L215.237 153.453L222.403 146.781L232.435 138.627L237.452 133.437L242.468 129.731L246.051 130.472L245.334 134.179L232.435 144.557L223.836 152.712L215.954 159.384L208.788 166.797L203.055 171.986L193.739 181.623L188.723 187.554L183.707 192.743L177.257 200.897L170.808 208.311L171.525 212.017L175.824 217.206L179.407 220.172H182.274L195.172 203.863H196.605L198.039 200.897L205.205 193.484L210.221 187.554L236.018 160.866L246.051 152.712L249.634 153.453L253.217 157.16V158.642L256.083 160.125V161.608L258.233 162.349L266.115 172.727L271.848 181.623V183.106L279.731 177.917L289.047 170.503L289.763 166.797L286.18 160.125L281.164 152.712L270.415 135.661L266.115 127.507L268.982 128.989L276.864 139.368L279.014 140.109L285.464 135.661L284.747 131.955L280.447 125.283L274.715 119.352L268.982 114.163L263.966 108.233L256.083 99.3367L254.65 100.078V101.561L252.5 102.302L247.484 96.3714L243.184 88.9583L238.885 89.6996L236.018 93.4062V100.078L238.168 107.491L239.601 108.233L238.168 111.198L226.703 123.059L220.97 128.248L210.937 137.144L200.905 145.298L190.156 155.677L180.124 166.055L175.108 171.986L168.658 180.14L160.776 189.778L151.46 201.639L142.861 213.5L134.261 228.326L124.946 245.377L119.93 252.79H118.496L116.347 247.6L112.764 243.894L107.031 238.705L104.164 237.963L102.731 240.929L92.6988 258.72L84.8162 272.805L76.9337 290.597L69.0511 311.354L60.4519 338.041L54.7191 361.764L52.5694 375.107L46.8366 423.293L46.12 430.706L57.5855 429.965L58.3021 411.432L60.4519 392.158L66.1847 360.281L71.9175 338.041L79.8001 315.06L87.6826 293.562L95.5652 275.029L102.015 263.909L104.881 261.686H107.031L106.314 265.392L96.9984 283.184L91.2656 297.269L78.3669 335.817L71.9175 361.022L66.9013 387.71L64.7515 403.277L62.6017 427L61.8851 430.706H74.7839V417.362L76.9337 397.347L81.2333 374.366L85.5328 355.833L91.9822 332.111L100.581 308.389L105.598 297.269H109.181L108.464 302.458L104.881 311.354V315.802L127.812 322.474L132.112 324.698L129.962 332.852L124.946 350.644L120.646 369.177L117.063 388.451L114.913 408.467L114.197 418.845V464.807L116.347 490.753L114.913 492.236L106.314 492.977H97.715L95.5652 491.494L96.2818 489.27L109.897 487.788L110.614 485.564L109.181 453.687V428.482L110.614 399.571L112.764 382.52L119.213 353.609L124.229 336.559L127.096 326.922V325.439L119.93 323.956L106.314 320.25H102.731L98.4316 329.887L91.2656 353.609L86.966 371.401L82.6665 394.382L79.0835 432.189L78.3669 443.309L77.6503 444.05H44.6868L45.4034 478.151L47.5532 507.062L51.8528 535.974L54.7191 553.765L60.4519 575.263L68.3345 598.986L76.9337 621.966L83.3831 636.052L91.9822 651.619L99.1482 664.963L109.181 681.272L115.63 692.392L123.513 702.029L130.678 712.407L136.411 719.821L135.695 721.303L126.379 710.925L119.93 702.77L112.047 692.392L101.298 675.341L89.1158 653.843L79.0835 634.569L70.4843 616.036L62.6017 595.279L54.7191 570.815L50.4196 550.8L45.4034 524.112L41.8204 497.425L41.1038 484.823L40.3872 452.946L41.1038 444.05L23.1889 443.309L21.7557 442.567L21.0391 436.637L21.7557 431.448L23.1889 430.706L41.8204 429.965L43.2536 410.691L46.12 389.934L51.1362 361.764L54.7191 343.972L63.3183 317.284L71.2009 294.304L76.9337 280.96L84.0997 266.875L94.132 248.342L100.581 238.705L104.881 232.033L110.614 221.654L114.913 213.5L129.245 194.226L138.561 181.623L147.877 169.762L154.326 161.608L164.359 150.488L177.974 136.403L183.707 131.213L193.739 122.318L203.771 114.163L207.354 111.939H208.788L208.071 115.646L198.039 124.542L190.156 131.213L178.691 142.333L174.391 146.04L169.375 151.97L162.925 158.642L157.909 164.573L150.027 173.469L143.577 181.623L134.978 192.743L127.812 202.38L119.213 214.241L112.047 226.844L109.181 232.033L109.897 234.998L113.48 238.705L119.213 243.153L121.363 243.894L122.796 239.446L129.962 226.844L137.844 213.5L144.294 204.604L153.61 192.743L158.626 186.071L165.792 177.175L172.241 169.021L181.557 158.642L196.605 143.075L204.488 136.403L214.52 127.507L221.686 120.835L228.852 114.904L233.869 110.457L233.152 103.043L231.719 100.819L223.836 102.302L224.553 99.3367L233.869 89.6996L239.601 84.5103L246.767 80.0624L257.516 71.9079L269.698 64.4947L298.362 46.7031L315.561 37.8073L334.192 29.6528L356.407 20.7569L385.071 13.3437L414.451 6.67187L436.666 2.96528L453.864 0.741319L471.062 0ZM776.333 106.009L772.033 114.904L762.718 131.213L755.552 141.592L749.102 151.229L742.653 162.349L739.786 167.538L741.22 171.245L743.369 171.986L744.803 174.951L752.685 181.623L762.718 190.519L768.45 196.449L773.467 202.38L782.782 211.276L789.232 218.689L792.815 223.137V226.102L788.515 223.878L783.499 217.948L777.05 210.535L767.017 200.156L762.001 194.226L754.118 186.812L739.786 174.951L736.92 173.469L733.337 177.175L728.321 184.588L727.604 188.295L732.62 193.484L739.786 199.415L746.952 206.087L754.118 212.017L763.434 221.654L770.6 231.291L777.05 238.705L784.215 248.342L789.948 255.014L797.831 252.048L810.013 243.894L812.163 241.67L829.136 231.083L816.462 212.55L800.697 196.449L794.964 191.26L789.948 186.071L784.215 180.882L775.616 172.727L767.734 166.055L759.851 158.642L756.985 160.125L750.535 166.797L749.102 167.538V169.021L746.236 170.503L746.952 167.538L753.402 160.125L760.568 151.97L767.734 142.333L774.9 131.955L779.916 125.283L787.082 118.611L784.932 123.8L782.782 127.507L787.082 133.437L794.248 139.368L802.13 146.04L809.296 152.712L812.879 156.418L814.58 157.901L815.746 159.384L816.819 160.426L818.612 162.349L824.345 168.279L830.794 176.434L840.11 186.812L846.559 194.967L854.442 204.604L863.041 217.948L872.357 232.774L879.523 246.118L882.389 246.859L890.272 243.153L891.705 241.67L890.988 237.963L882.389 220.913L874.507 209.052L864.474 195.708L855.159 183.847L848.709 175.693L840.11 165.314L831.511 155.677L826.495 149.746L819.329 142.333L811.446 135.661L802.847 127.507L794.964 120.835L783.499 109.715L778.483 106.009H776.333ZM769.167 146.04L763.434 154.194L764.151 157.901L769.884 163.831L777.766 170.503L787.082 178.658L794.248 185.33L799.981 190.519L803.564 194.226L803.943 194.596L804.997 195.708L809.296 199.415L818.612 209.052L825.778 219.43L832.228 230.55L833.055 232.82L822.195 238.705L817.896 241.67L817.179 243.894L820.045 250.566L828.645 264.651L833.661 275.771L837.244 283.184L840.827 289.114L840.11 290.597L835.811 291.338L832.228 280.219L825.062 266.133L816.462 251.307L812.879 246.859L807.147 249.083L795.681 255.755L792.098 257.979L793.531 260.944L802.847 275.029L810.013 286.89L819.329 303.199L823.628 310.613L827.211 309.871L835.811 305.423L842.26 302.458L855.159 297.269L855.875 294.304L847.276 275.771L840.827 264.651L837.244 257.979L837.96 255.014L854.442 246.118L853.725 242.411L849.426 234.257L840.11 221.654L831.511 209.052L825.778 201.639L817.896 192.002L807.147 180.14L799.264 171.986L793.531 166.797L788.515 161.608L780.632 154.936L769.884 146.04H769.167ZM893.855 272.064L887.406 276.512L888.839 283.184L897.438 306.165L906.754 332.111L918.219 378.814L922.519 404.019L923.952 413.656L924.669 429.965L925.385 430.706H936.851L936.134 415.139L933.268 391.416L927.535 361.764L921.802 339.524L914.636 317.284L901.738 282.442L898.155 272.805L897.438 272.064H893.855Z" fill="#E3A8F8"/>
<path d="M492.555 31.873L515.486 32.6144L554.182 37.8036L571.381 40.7689L592.879 45.2168L605.061 48.1821L615.093 51.1473L627.992 54.8539L644.474 60.7845L651.64 63.7498L659.522 67.4563L671.704 72.6456L678.154 75.6109L693.202 82.2827L706.818 89.6959L713.984 94.8851L727.599 103.781L734.048 108.229V109.712H735.481V114.159L734.048 114.901L722.583 107.488L703.235 94.1438L684.603 83.7654L663.822 74.8695L643.757 66.715L620.109 58.5605L595.745 51.8887L575.68 47.4407L547.733 42.9928L525.518 40.7689L504.737 40.0276H481.089L462.458 40.7689L460.308 41.5102L459.591 85.9893L456.725 87.472L428.061 91.9199L408.713 96.3678L385.065 103.04L363.567 110.453L347.086 117.866L329.887 126.762L314.122 135.658L311.972 136.399L310.539 135.658L311.256 131.951L318.422 127.503L326.304 123.055L333.47 118.607L344.936 113.418L359.268 106.746L370.017 102.298L387.932 96.3678L410.863 89.6959L428.778 85.9893L444.543 83.7654L453.142 83.024L453.859 77.8348V40.7689L442.393 42.9928L443.11 54.8539V72.6456L436.66 74.8695L415.879 78.5761L392.231 83.7654L368.583 91.9199L349.235 100.074L329.171 109.712L311.256 119.349L304.806 123.055L301.94 122.314V119.349L308.389 114.901L320.571 108.229L350.669 94.1438L356.401 91.1785L387.215 80.8001L413.729 74.1282L435.227 69.6803L436.66 68.939L437.377 58.5605L409.43 64.4911L395.098 68.1977L380.049 72.6456L349.952 82.2827L335.62 88.2133L310.539 100.816L296.207 109.712L291.908 112.677H289.758L291.191 107.488L293.341 103.781L306.956 97.1091L312.689 93.4025L320.571 89.6959L335.62 83.024L344.219 79.3175L356.401 75.6109L382.199 66.715L403.697 60.0432L423.045 55.5952L436.66 53.3713L438.81 42.9928L428.061 44.4755L405.13 48.9234L377.899 56.3366L352.818 64.4911L326.304 75.6109L306.956 84.5067L296.207 90.4372L282.592 100.816L280.442 102.298H276.859L275.426 100.816L276.142 97.8504L285.458 91.1785L291.908 87.472L302.656 80.0588L314.839 75.6109L334.187 66.715L359.268 56.3366L380.766 49.6647L398.681 44.4755L421.612 39.2862L466.041 33.3557L492.555 31.873Z" fill="#E3A8F8"/>
<path d="M896.723 266.875L899.589 267.616L910.338 294.304L920.371 321.733L925.387 338.042L931.836 364.729L937.569 392.158L941.152 415.139L942.585 429.965H982.715L984.865 430.706V442.568L976.982 443.309H956.201L956.917 444.792V467.772L956.201 488.529L953.334 512.993L947.601 550.059L942.585 572.298L933.986 598.986L928.253 614.553L921.087 631.604L913.921 645.689L904.606 662.739L895.29 679.048L889.557 688.685L884.541 696.84L874.509 710.184L868.776 717.597L863.043 724.269V722.045L869.492 712.408L876.658 702.77L883.824 692.392L890.99 679.79L901.739 660.515L906.755 651.619L911.772 641.241L918.221 628.639L925.387 610.106L930.403 595.279L939.002 568.592L944.735 544.87L948.318 522.63L951.184 495.942L952.618 475.186L953.334 444.05L906.039 443.309L904.606 441.826V430.706L903.172 421.811L900.306 395.123L896.006 369.918L888.84 340.266L883.108 320.991L873.075 294.304L869.492 283.925L870.926 279.477L873.075 280.96L881.675 303.941L888.84 322.474L893.14 338.783L899.589 363.988L903.889 386.227L907.472 407.726L908.189 416.621V429.965L921.087 430.706L918.221 407.726L913.921 379.555L907.472 351.385L901.023 328.404L894.573 310.613L887.407 289.115L881.675 277.253V274.288L890.274 270.582L896.723 266.875ZM893.857 272.064L887.407 276.512L888.84 283.184L897.44 306.165L906.755 332.111L918.221 378.814L922.521 404.019L923.954 413.656L924.67 429.965L925.387 430.706H936.853L936.136 415.139L933.27 391.417L927.537 361.764L921.804 339.524L914.638 317.285L901.739 282.443L898.156 272.806L897.44 272.064H893.857Z" fill="#E3A8F8"/>
<path d="M105.589 351.381L108.456 352.863L100.573 397.343L99.14 409.204L98.4234 421.806V465.544H96.2736L93.4072 459.613L89.8242 458.872H79.0753L79.7919 475.922L81.9416 510.023L86.2412 535.228L92.6906 563.398L95.557 574.518V577.483H89.1076L85.5246 575.259V572.294L89.1076 573.035L89.8242 575.259H91.2574L86.9578 559.691L81.225 536.711L76.9255 513.73L75.4923 502.61L74.0591 472.957V458.872H58.2939L60.4437 481.112L62.5935 507.058L65.4599 525.591L71.1927 554.502L76.9255 575.259L82.6582 590.827L91.2574 611.584L99.8566 627.893L108.456 643.46L112.755 650.874L117.772 661.252L127.087 676.078L135.686 688.681L143.569 699.059L150.735 708.697V710.92L142.136 701.283L137.12 695.353L128.52 684.233L121.355 673.113L114.905 661.993L104.873 642.719L99.14 633.082L89.1076 615.29L79.7919 596.016L70.4761 569.329L65.4599 549.313L61.1603 528.556L56.8607 502.61L54.7109 478.888V453.683L91.974 452.942L93.4072 409.204L95.557 393.636L102.006 360.277L104.156 352.122L105.589 351.381Z" fill="#E3A8F8"/>
<path d="M154.315 313.578H155.748L155.031 318.026L151.448 327.663L142.849 354.351L137.116 376.59L132.817 399.571L131.384 411.432L130.667 421.811V459.618L132.1 479.634L134.25 494.46L139.266 517.441L140.699 521.147L156.465 520.406L157.898 521.889L157.181 524.854L152.882 526.337L144.282 527.078L103.436 527.819L104.87 539.68L108.452 553.765L112.752 573.04L118.485 590.831L124.934 606.399L125.651 610.106L122.068 609.364L114.902 592.314L109.169 574.522L102.72 549.318L99.1367 530.785V524.854L100.57 524.113L130.667 522.63L134.967 521.889L134.25 515.958L129.234 492.236L126.367 472.22L124.934 453.687V440.344L126.367 418.104L128.517 399.571L134.25 371.401L142.849 339.524L147.149 326.922L153.598 314.319L154.315 313.578Z" fill="#E3A8F8"/>
<path d="M126.372 538.193L131.388 539.676L134.971 547.089L142.137 567.846L149.303 583.414L162.202 607.877L155.752 610.101L142.137 613.067L133.538 614.549L129.955 615.291L135.688 627.152L142.854 640.495L150.02 651.615L157.902 664.218L165.785 676.079L175.817 692.388L177.25 696.094L173.667 692.388L163.635 677.561L155.036 664.959L140.704 642.719L134.254 632.341L127.088 618.997V616.773H119.206L120.639 615.291L127.805 613.067L134.971 611.584L140.704 610.101L137.837 604.171L127.088 579.707L121.356 565.622L116.339 548.572L114.906 541.9V538.935L117.773 540.417L124.222 562.657L131.388 580.449L141.42 603.429L143.57 607.877L150.736 607.136L155.752 605.653L154.319 601.205L146.437 587.12L138.554 568.587L132.821 553.02L129.238 542.641V541.159L122.789 539.676V538.935L126.372 538.193Z" fill="#E3A8F8"/>
<path d="M940.428 446.273L941.861 447.756L942.578 452.204V479.633L941.145 501.131L938.278 521.888L933.262 544.128L926.813 566.367L923.946 574.522L921.08 575.263L920.363 572.298L926.096 552.282L930.396 532.266L934.695 507.803L938.278 472.961L938.995 452.945L940.428 446.273Z" fill="#E3A8F8"/>
<path d="M849.422 622.713L858.738 623.454L873.786 625.678L883.102 628.643L883.819 630.867L883.102 632.35H881.669L880.236 635.315H878.802L877.369 638.281L866.62 657.555L857.304 673.123L852.288 681.277L845.839 690.914L836.523 702.775L830.79 710.189L827.207 713.154L828.641 710.189L837.956 696.845L845.839 686.466L853.721 673.864L865.904 652.366L873.07 639.763L877.369 632.35L878.086 630.126L870.203 628.643L865.187 629.385L858.738 639.022L843.689 664.968L837.956 674.605L827.207 692.397L822.908 698.327H821.475L820.041 701.293L814.309 707.965V705.741L823.624 691.656L829.357 683.501L837.956 669.416L845.122 656.814L853.721 641.246L861.604 629.385L862.321 627.902L853.005 627.161L846.555 624.196L849.422 622.713Z" fill="#E3A8F8"/>
<path d="M865.893 547.094L868.043 547.835L866.61 554.507L862.31 564.144L857.294 576.005L851.561 587.866L842.246 608.623L836.513 619.743V621.226L841.529 621.967L840.096 623.45L833.646 624.191L824.331 639.759L817.881 649.396L809.999 661.257L809.282 662.739H807.849L806.416 666.446L799.25 676.083L791.367 686.462L787.068 691.651L786.351 693.875H784.918V695.358L778.468 699.064L777.035 699.805L778.468 696.84L787.784 685.72L795.667 676.083L807.132 659.033L817.165 644.207L825.047 632.345L832.213 619.743L838.663 607.882L845.112 593.056L850.128 581.936L860.877 557.472L864.46 548.576L865.893 547.094Z" fill="#E3A8F8"/>
<path d="M923.231 460.359H927.531L926.814 472.22L925.381 485.564L923.948 503.356L916.065 543.387L908.182 573.781L906.033 576.005H903.883L904.599 570.816L910.332 549.318L914.632 530.785L918.215 506.321L921.081 475.186L921.798 464.066L923.231 460.359Z" fill="#E3A8F8"/>
<path d="M883.11 546.352L885.26 547.093L880.244 562.661L874.511 577.487L869.495 588.607L862.329 606.398L863.045 608.622L869.495 610.846L880.96 613.07L881.677 615.294L880.244 616.036L870.928 615.294L859.462 612.329L857.312 610.105L859.462 602.692L870.211 576.746L878.094 555.989L881.677 547.093L883.11 546.352Z" fill="#E3A8F8"/>
<path d="M896.709 630.863L898.859 631.605L889.543 649.396L885.244 658.292L877.361 671.636L870.195 682.756L861.596 695.358L854.43 704.254L849.414 710.184L847.98 710.926L849.414 707.96L855.146 699.806L864.462 686.462L873.778 671.636L880.227 660.516L886.677 648.655L891.693 638.276L896.709 630.863Z" fill="#E3A8F8"/>
<path d="M744.797 120.836L746.23 121.577L745.514 126.025L740.498 133.438L732.615 143.817L724.016 156.419L720.433 160.867L717.566 160.126L718.283 155.678L728.315 141.593L736.198 131.214L741.214 124.543L744.797 120.836Z" fill="#E3A8F8"/>
<path d="M837.953 559.695L840.102 560.437L837.953 568.591L832.22 580.452L825.77 596.761H822.188L822.904 593.055L827.204 583.418L833.653 568.591L836.519 561.178L837.953 559.695Z" fill="#E3A8F8"/>
<path d="M649.495 657.551L660.961 663.481L663.827 665.705L661.678 666.447L655.228 665.705H647.346L643.763 664.964H640.18V663.481L646.629 661.257L649.495 659.033V657.551Z" fill="#0D1016"/>
<path d="M642.324 427.742L648.773 428.484H653.073V429.966H656.656L655.939 431.449L648.057 432.19L640.891 429.225L642.324 427.742Z" fill="#0D1117"/>
<path d="M310.546 593.797L320.578 594.538L321.295 596.021L317.712 597.503H307.68L310.546 593.797Z" fill="#0D1117"/>
<path d="M506.165 127.508L508.315 128.99L503.299 134.18L502.582 131.214V128.99L504.732 128.249H505.448L506.165 127.508Z" fill="#0D0B0D"/>
</svg>
