<svg width="125" height="67" viewBox="0 0 125 67" fill="none" xmlns="http://www.w3.org/2000/svg">
<path d="M45.776 3.736H1.808V0.183996H50.384V67H0.752V63.448L45.776 3.736ZM46.832 63.448V8.248L5.168 63.448H46.832Z" fill="#50C878"/>
<path d="M72.5825 67V0.183996H97.4465C102.311 0.183996 106.791 1.4 110.887 3.832C115.047 6.264 118.343 9.56 120.775 13.72C123.207 17.816 124.423 22.296 124.423 27.16V40.024C124.423 44.888 123.207 49.4 120.775 53.56C118.343 57.656 115.047 60.92 110.887 63.352C106.791 65.784 102.311 67 97.4465 67H72.5825Z" fill="#E3A8F8"/>
</svg>
